:FULLY-SPECIFIED
:FORCE-ALL-JOINTS-BE-3DOF
:DEGREES
34
root 5.98316 16.9002 -28.0767 9.99572 -1.88814 -2.26319
lfemur -20.0965 1.65981 -19.78
ltibia 33.7611 0 0
lfoot -36.0296 4.26623 0
ltoes 36.2035 0 0
rfemur -16.8068 7.40874 19.5633
rtibia 30.5463 0 0
rfoot -27.4371 -19.1451 0
rtoes 14.9784 0 0
lowerback -5.47487 2.56376 -0.985771
upperback -1.91485 3.45624 0.837124
thorax 0.984624 1.733 1.62268
lowerneck -9.54511 -1.65037 2.66742
upperneck -2.59458 -2.46541 0.747542
head 0.755616 -1.23557 -0.296848
lclavicle -4.33443e-14 -6.3831e-15 0
lhumerus -41.5272 -12.763 97.099
lradius 38.8195 0 0
lwrist 5.69748 0 0
lhand -11.2633 5.92617 0
lfingers 7.12502 0 0
lthumb 14.7668 35.38 0
rclavicle -4.33443e-14 -6.3831e-15 0
rhumerus -40.6408 -5.06279 -88.6615
rradius 39.1386 0 0
rwrist 11.1031 0 0
rhand -26.8234 -19.922 0
rfingers 7.12502 0 0
rthumb -0.249571 -49.9016 0
35
root 5.97585 16.9008 -28.0773 10.0131 -1.88582 -2.2173
lfemur -20.1002 1.66925 -19.8012
ltibia 33.7295 0 0
lfoot -35.9432 4.26672 0
ltoes 36.0342 0 0
rfemur -16.8062 7.40809 19.5376
rtibia 30.5172 0 0
rfoot -27.3797 -19.1829 0
rtoes 14.6937 0 0
lowerback -5.52648 2.54379 -0.910584
upperback -1.88854 3.42696 0.7526
thorax 1.05118 1.71704 1.49605
lowerneck -9.53073 -1.63139 2.70486
upperneck -2.65246 -2.44315 0.807419
head 0.735213 -1.22448 -0.283072
lclavicle -4.32907e-14 -4.9878e-15 0
lhumerus -41.5123 -12.8338 97.0506
lradius 39.0462 0 0
lwrist 5.85551 0 0
lhand -11.3863 5.64178 0
lfingers 7.12502 0 0
lthumb 14.6483 35.1043 0
rclavicle -4.32907e-14 -4.9878e-15 0
rhumerus -40.5713 -5.05618 -88.786
rradius 39.0865 0 0
rwrist 11.1479 0 0
rhand -26.807 -19.9133 0
rfingers 7.12502 0 0
rthumb -0.233661 -49.8929 0
36
root 5.96913 16.9015 -28.0778 10.0256 -1.87695 -2.17374
lfemur -20.1012 1.67309 -19.8209
ltibia 33.7015 0 0
lfoot -35.8574 4.26421 0
ltoes 35.874 0 0
rfemur -16.8063 7.39226 19.5132
rtibia 30.4968 0 0
rfoot -27.3152 -19.2078 0
rtoes 14.4027 0 0
lowerback -5.56804 2.52222 -0.843564
upperback -1.86292 3.39584 0.675257
thorax 1.11046 1.70037 1.38064
lowerneck -9.51818 -1.61384 2.74008
upperneck -2.70871 -2.42252 0.859358
head 0.715568 -1.21433 -0.271487
lclavicle -4.49253e-14 -2.88238e-15 0
lhumerus -41.4952 -12.8889 97.0002
lradius 39.2435 0 0
lwrist 5.99353 0 0
lhand -11.51 5.33451 0
lfingers 7.12502 0 0
lthumb 14.5291 34.8057 0
rclavicle -4.49253e-14 -2.88238e-15 0
rhumerus -40.5062 -5.05506 -88.8996
rradius 39.0384 0 0
rwrist 11.1885 0 0
rhand -26.7944 -19.91 0
rfingers 7.12502 0 0
rthumb -0.221556 -49.8897 0
37
root 5.96248 16.9019 -28.0784 10.0373 -1.84404 -2.13993
lfemur -20.114 1.63617 -19.826
ltibia 33.6954 0 0
lfoot -35.7656 4.2726 0
ltoes 35.7301 0 0
rfemur -16.812 7.30714 19.5001
rtibia 30.4845 0 0
rfoot -27.2469 -19.1883 0
rtoes 13.9863 0 0
lowerback -5.59745 2.49142 -0.760519
upperback -1.83934 3.35148 0.597913
thorax 1.16151 1.67744 1.2546
lowerneck -9.51051 -1.59765 2.77619
upperneck -2.75743 -2.40387 0.908491
head 0.699105 -1.20522 -0.261155
lclavicle -5.1135e-14 -3.72185e-15 0
lhumerus -41.4754 -12.9192 96.9255
lradius 39.4044 0 0
lwrist 6.10313 0 0
lhand -11.6165 4.98033 0
lfingers 7.12502 0 0
lthumb 14.4265 34.4588 0
rclavicle -5.1135e-14 -3.72185e-15 0
rhumerus -40.4472 -5.0661 -89.0169
rradius 38.9966 0 0
rwrist 11.1988 0 0
rhand -26.7881 -19.9426 0
rfingers 7.12502 0 0
rthumb -0.215506 -49.9223 0
38
root 5.9553 16.9021 -28.0792 10.0547 -1.8038 -2.10768
lfemur -20.1399 1.58811 -19.8269
ltibia 33.7015 0 0
lfoot -35.6686 4.28173 0
ltoes 35.5932 0 0
rfemur -16.8222 7.18474 19.4901
rtibia 30.4695 0 0
rfoot -27.189 -19.1463 0
rtoes 13.493 0 0
lowerback -5.62915 2.45722 -0.662454
upperback -1.81621 3.30189 0.513115
thorax 1.21455 1.65193 1.11225
lowerneck -9.50457 -1.58116 2.81406
upperneck -2.80573 -2.38504 0.963825
head 0.683114 -1.19595 -0.249227
lclavicle -5.12917e-14 -4.91862e-15 0
lhumerus -41.457 -12.9521 96.8389
lradius 39.577 0 0
lwrist 6.21612 0 0
lhand -11.709 4.63051 0
lfingers 7.12502 0 0
lthumb 14.3374 34.1153 0
rclavicle -5.12917e-14 -4.91862e-15 0
rhumerus -40.3892 -5.07362 -89.1494
rradius 38.9613 0 0
rwrist 11.1882 0 0
rhand -26.7794 -19.9925 0
rfingers 7.12502 0 0
rthumb -0.20706 -49.9722 0
39
root 5.94783 16.9019 -28.0802 10.0771 -1.75723 -2.07716
lfemur -20.178 1.53344 -19.8245
ltibia 33.7193 0 0
lfoot -35.5694 4.28779 0
ltoes 35.469 0 0
rfemur -16.8363 7.0294 19.4827
rtibia 30.4524 0 0
rfoot -27.1441 -19.0837 0
rtoes 12.9415 0 0
lowerback -5.66212 2.42075 -0.553862
upperback -1.79421 3.24874 0.423697
thorax 1.26783 1.6247 0.959049
lowerneck -9.50054 -1.56497 2.85215
upperneck -2.85263 -2.36673 1.02354
head 0.66793 -1.18686 -0.236042
lclavicle -4.65755e-14 -5.83199e-15 0
lhumerus -41.4404 -12.9873 96.744
lradius 39.7563 0 0
lwrist 6.32923 0 0
lhand -11.7848 4.29681 0
lfingers 7.12502 0 0
lthumb 14.2643 33.7868 0
rclavicle -4.65755e-14 -5.83199e-15 0
rhumerus -40.3342 -5.07625 -89.2926
rradius 38.9344 0 0
rwrist 11.1571 0 0
rhand -26.7679 -20.0571 0
rfingers 7.12502 0 0
rthumb -0.195966 -50.0368 0
